<svg width="24" height="24" viewBox="0 0 24 24" fill="none" xmlns="http://www.w3.org/2000/svg">
<path fill-rule="evenodd" clip-rule="evenodd" d="M13.2 0.9C12.4889 0.366667 11.5111 0.366667 10.8 0.9L0.8 8.4C0.296388 8.77771 0 9.37049 0 10V22C0 23.1046 0.895431 24 2 24H6C7.10457 24 8 23.1046 8 22V16C8 13.7909 9.79086 12 12 12C14.2091 12 16 13.7909 16 16V22C16 23.1046 16.8954 24 18 24H22C23.1046 24 24 23.1046 24 22V10C24 9.37049 23.7036 8.77771 23.2 8.4L13.2 0.9ZM22.6 9.2L12.6 1.7C12.2444 1.43333 11.7556 1.43333 11.4 1.7L1.4 9.2C1.14819 9.38885 1 9.68524 1 10V22C1 22.5523 1.44772 23 2 23H6C6.55228 23 7 22.5523 7 22V16C7 13.2386 9.23858 11 12 11C14.7614 11 17 13.2386 17 16V22C17 22.5523 17.4477 23 18 23H22C22.5523 23 23 22.5523 23 22V10C23 9.68524 22.8518 9.38885 22.6 9.2Z" fill="white"/>
</svg>
