<svg width="24" height="24" viewBox="0 0 24 24" fill="none" xmlns="http://www.w3.org/2000/svg">
<path fill-rule="evenodd" clip-rule="evenodd" d="M17 9C17 11.7614 14.7614 14 12 14C9.23858 14 7 11.7614 7 9C7 6.23858 9.23858 4 12 4C14.7614 4 17 6.23858 17 9ZM16 9C16 11.2091 14.2091 13 12 13C9.79086 13 8 11.2091 8 9C8 6.79086 9.79086 5 12 5C14.2091 5 16 6.79086 16 9Z" fill="white"/>
<path fill-rule="evenodd" clip-rule="evenodd" d="M24 2C24 0.89543 23.1046 0 22 0H2C0.895431 0 0 0.89543 0 2V22C0 23.1046 0.89543 24 2 24H22C23.1046 24 24 23.1046 24 22V2ZM12 16C15.866 16 19 19.134 19 23H5C5 19.134 8.134 16 12 16ZM1 2C1 1.44772 1.44772 1 2 1H22C22.5523 1 23 1.44772 23 2V22C23 22.5523 22.5523 23 22 23H20C20 18.5817 16.4183 15 12 15C7.58172 15 4 18.5817 4 23H2C1.44772 23 1 22.5523 1 22V2Z" fill="white"/>
</svg>
