<svg width="24" height="24" viewBox="0 0 24 24" fill="none" xmlns="http://www.w3.org/2000/svg">
<path d="M12 14C14.7614 14 17 11.7614 17 9C17 6.23859 14.7614 4 12 4C9.23858 4 7 6.23859 7 9C7 11.7614 9.23858 14 12 14Z" fill="white"/>
<path fill-rule="evenodd" clip-rule="evenodd" d="M3 0C1.34315 0 0 1.34314 0 3V22C0 23.1046 0.895432 24 2 24H22C23.1046 24 24 23.1046 24 22V2C24 0.895416 23.1046 0 22 0H3ZM22 1H3C1.89543 1 1 1.89542 1 3V22C1 22.5523 1.44772 23 2 23H4C4 18.5817 7.58172 15 12 15C16.4183 15 20 18.5817 20 23H22C22.5523 23 23 22.5523 23 22V2C23 1.44772 22.5523 1 22 1Z" fill="white"/>
</svg>
